<svg id="Layer_1" height="512" viewBox="0 0 512 512" width="512" xmlns="http://www.w3.org/2000/svg" data-name="Layer 1"><g fill="#9EBF24"><path d="m322.824 89.477c11.727-7.271 21.855-13.551 41.77-18.979 16.64-4.537 31.992-5.87 45.737-4.179-19.731-11.795-45.631-14.028-75.737-5.819-19.915 5.428-30.043 11.708-41.77 18.979a224.7 224.7 0 0 1 -23.128 13c11.76 5.012 22.247 8.013 31.821 9.108a234.034 234.034 0 0 0 21.307-12.11z"/><path d="m346.692 390.523c-4.107-48.451-16.6-86.01-37.137-111.633a29.369 29.369 0 0 0 -23.076-10.95 30.244 30.244 0 0 0 -7.025.831c.033.041.068.078.1.119 20.535 25.623 33.03 63.182 37.137 111.633a378.754 378.754 0 0 1 .063 64.891c-.017.165-.041.33-.072.493a8.9 8.9 0 0 0 12.018 10.044 11.5 11.5 0 0 0 3.733-1.77 95.766 95.766 0 0 0 15.567-21.897 400.669 400.669 0 0 0 -1.308-41.761z"/><path d="m195.572 445.417c-.012-.113-.05-.484-.1-1.082-19.7-35.444-24.14-87.46-20.958-129.087.275-3.589.555-6.925.818-10.04 1.683-20.021 2.7-32.106-4.073-43.046-6.517-10.53-19.8-18.809-45.307-32.311-14.06-7.443-24.8-22.379-30.231-42.054a109.536 109.536 0 0 1 1.32-60.951c6.2-19.4 17.606-35.018 32.982-45.168 17.958-11.852 40.652-16.06 67.457-12.5.946.126 1.9.282 2.868.451-11.184-5.042-22.592-9.088-32.868-10.451-26.805-3.555-49.5.653-67.457 12.5-15.376 10.15-26.781 25.769-32.982 45.168a109.536 109.536 0 0 0 -1.32 60.951c5.434 19.675 16.171 34.611 30.231 42.054 25.5 13.5 38.79 21.781 45.307 32.311 6.773 10.94 5.756 23.025 4.073 43.046-.263 3.115-.543 6.451-.818 10.04-3.849 50.344 3.428 115.909 35.4 148.941a11.618 11.618 0 0 0 3.725 1.761 8.9 8.9 0 0 0 12.014-10.043c-.039-.162-.063-.325-.081-.49z"/></g><path d="m411.083 53c-22.016-11.109-48.812-12.481-79.645-4.076-21.6 5.888-32.936 12.917-44.938 20.36-8.268 5.127-16.817 10.429-29.572 15.762a11.058 11.058 0 0 0 -1.4.708c-2.992-1.621-6.693-3.757-10.808-6.134-19.963-11.529-50.132-28.951-75.667-32.338-55.491-7.355-97.9 17.282-113.448 65.915-14.9 46.632.673 99.236 34.728 117.265 23.058 12.207 35.687 19.892 40.718 28.02 4.686 7.569 3.845 17.57 2.318 35.726-.265 3.141-.548 6.508-.825 10.13-1.964 25.693-4.977 113.032 38.74 158.2 1.813 1.874 4.574 3.431 8.441 4.761 10.482 3.608 22.049-1.318 26.339-11.213a21.159 21.159 0 0 0 1.422-12.129c-.527-5.451-10.118-112.3 35.394-167.7a17.8 17.8 0 0 1 27.311.138c44.617 55.671 35.173 162.1 34.65 167.563a20.773 20.773 0 0 0 20.724 24.52 21.608 21.608 0 0 0 7.036-1.18c3.867-1.331 6.628-2.888 8.443-4.762 43.716-45.17 40.7-132.509 38.739-158.2-.275-3.6-.557-6.956-.82-10.084-1.526-18.164-2.366-28.168 2.319-35.738 5.024-8.114 17.654-15.814 40.718-28.06 18-9.551 31.112-29.068 36.938-54.954 5.508-24.479 3.517-51.525-5.463-74.2-8.713-22.006-23.375-38.709-42.392-48.3zm36.147 119.866c-4.971 22.092-16.217 39.218-30.855 46.988-26.032 13.817-38.75 21.766-45.3 32.341-6.772 10.939-5.756 23.029-4.074 43.058.261 3.1.54 6.423.813 10 3.849 50.344-3.427 115.909-35.389 148.933a11.5 11.5 0 0 1 -3.733 1.77 8.9 8.9 0 0 1 -12.013-10.044c.031-.163.055-.328.072-.493a378.754 378.754 0 0 0 -.063-64.891c-4.107-48.451-16.6-86.01-37.137-111.633a29.794 29.794 0 0 0 -45.948-.251c-20.941 25.491-33.7 63.055-37.92 111.648a374.939 374.939 0 0 0 -.115 65.13c.018.165.042.328.073.49a8.9 8.9 0 0 1 -12.014 10.043 11.618 11.618 0 0 1 -3.725-1.761c-31.969-33.032-39.246-98.6-35.4-148.941.275-3.589.555-6.925.818-10.04 1.683-20.021 2.7-32.106-4.073-43.046-6.517-10.53-19.8-18.809-45.307-32.311-14.06-7.443-24.8-22.379-30.231-42.054a109.536 109.536 0 0 1 1.32-60.951c6.2-19.4 17.606-35.018 32.982-45.168 17.958-11.852 40.652-16.06 67.457-12.5 23.174 3.074 52.1 19.779 71.244 30.833 5.734 3.312 10.685 6.171 14.342 7.99 36.861 18.332 57.733 17.212 70.226 14.773a6 6 0 1 0 -2.3-11.777c-14.522 2.832-31.026.126-51.293-8.512a224.7 224.7 0 0 0 23.128-13c11.727-7.271 21.855-13.551 41.77-18.979 51.519-14.046 90.783 2.438 107.724 45.218 8.123 20.478 9.913 44.952 4.921 67.137z" fill="#179d08"/></svg>