<?xml version="1.0" encoding="iso-8859-1"?>
<!-- Generator: Adobe Illustrator 19.0.0, SVG Export Plug-In . SVG Version: 6.00 Build 0)  -->
<svg version="1.1" id="Capa_1" xmlns="http://www.w3.org/2000/svg" xmlns:xlink="http://www.w3.org/1999/xlink" x="0px" y="0px"
	 viewBox="0 0 512 512" style="enable-background:new 0 0 512 512;" xml:space="preserve">
<g>
	<g>
		<path d="M390.467,10.807C387.749,4.267,381.355,0,374.271,0H137.558c-6.762,0-12.923,3.893-15.828,9.989
			c-2.911,6.108-2.046,13.344,2.215,18.592l36.407,44.853v342.719c0,52.854,43,95.848,95.854,95.848s95.854-43,95.854-95.854V73.48
			c3.063-3.758,8.066-9.93,16.289-20.153c4.974-6.184,9.924-12.362,13.618-17.02C390.046,26.114,394.494,20.498,390.467,10.807z
			 M321.311,55.689c-2.77,3.18-4.319,7.271-4.319,11.526v348.932c0,33.514-27.272,60.78-60.785,60.78
			c-33.514,0-60.785-27.266-60.785-60.78V67.215c0-4.027-1.385-7.925-3.922-11.052l-17.125-21.094h163.653
			C330.143,44.858,322.796,53.918,321.311,55.689z"/>
	</g>
</g>
<g>
	<g>
		<path d="M327.513,144.95h-44.42c-9.685,0-17.534,7.849-17.534,17.534s7.849,17.534,17.534,17.534h44.42
			c9.685,0,17.534-7.849,17.534-17.534S337.198,144.95,327.513,144.95z"/>
	</g>
</g>
<g>
	<g>
		<path d="M334.527,238.466h-51.434c-9.685,0-17.534,7.849-17.534,17.534s7.849,17.534,17.534,17.534h51.434
			c9.685,0,17.534-7.849,17.534-17.534S344.211,238.466,334.527,238.466z"/>
	</g>
</g>
<g>
	<g>
		<path d="M334.527,332.566h-51.434c-9.685,0-17.534,7.849-17.534,17.534s7.849,17.534,17.534,17.534h51.434
			c9.685,0,17.534-7.849,17.534-17.534S344.211,332.566,334.527,332.566z"/>
	</g>
</g>
<g>
</g>
<g>
</g>
<g>
</g>
<g>
</g>
<g>
</g>
<g>
</g>
<g>
</g>
<g>
</g>
<g>
</g>
<g>
</g>
<g>
</g>
<g>
</g>
<g>
</g>
<g>
</g>
<g>
</g>
</svg>
