<?xml version="1.0" encoding="iso-8859-1"?>
<!-- Generator: Adobe Illustrator 19.0.0, SVG Export Plug-In . SVG Version: 6.00 Build 0)  -->
<svg version="1.1" id="Capa_1" xmlns="http://www.w3.org/2000/svg" xmlns:xlink="http://www.w3.org/1999/xlink" x="0px" y="0px"
	 viewBox="0 0 457.665 457.665" style="enable-background:new 0 0 457.665 457.665;" xml:space="preserve">
<g>
	<path style="fill:#9EBF24;" d="M292.696,160.914H252.99c-8.882,0-15.673-6.792-15.673-15.673s6.792-15.673,15.673-15.673h39.706
		c8.882,0,15.673,6.792,15.673,15.673S301.578,160.914,292.696,160.914z"/>
	<path style="fill:#9EBF24;" d="M298.966,244.506H252.99c-8.882,0-15.673-6.792-15.673-15.673c0-8.882,6.792-15.673,15.673-15.673
		h45.975c8.882,0,15.673,6.792,15.673,15.673C314.639,237.714,307.847,244.506,298.966,244.506z"/>
	<path style="fill:#9EBF24;" d="M298.966,328.62H252.99c-8.882,0-15.673-6.792-15.673-15.673s6.792-15.673,15.673-15.673h45.975
		c8.882,0,15.673,6.792,15.673,15.673S307.847,328.62,298.966,328.62z"/>
</g>
<path style="fill:#9EBF24;" d="M228.957,457.665c-47.02,0-85.682-38.661-85.682-85.682V65.829L110.884,25.6
	c-4.18-4.702-4.702-10.971-2.09-16.718C111.406,3.657,117.153,0,122.9,0h211.592c6.269,0,12.016,3.657,14.629,9.404
	c3.657,8.882-0.522,13.584-7.837,22.988c-3.135,4.18-7.837,9.927-12.016,15.151c-7.314,8.882-12.016,14.629-14.629,17.763v306.155
	C314.639,419.004,275.978,457.665,228.957,457.665z M155.815,31.347l15.151,18.808c2.09,2.612,3.657,6.269,3.657,9.927v311.902
	c0,29.78,24.555,54.335,54.335,54.335s54.335-24.555,54.335-54.335V60.082c0-3.657,1.567-7.314,3.657-10.449
	c1.567-1.567,7.837-9.927,15.151-18.286C302.1,31.347,155.815,31.347,155.815,31.347z"/>
<g>
</g>
<g>
</g>
<g>
</g>
<g>
</g>
<g>
</g>
<g>
</g>
<g>
</g>
<g>
</g>
<g>
</g>
<g>
</g>
<g>
</g>
<g>
</g>
<g>
</g>
<g>
</g>
<g>
</g>
</svg>
